<svg version="1.1"  xmlns="http://www.w3.org/2000/svg" xmlns:xlink="http://www.w3.org/1999/xlink" x="0px" y="0px"
	 viewBox="0 0 768.1 768.1" style="enable-background:new 0 0 768.1 768.1;" xml:space="preserve">
<path d="M275.26,68.28c0.76-6.16,4.37-10.22,9.55-13.21c30.41-17.59,60.79-35.22,91.22-52.77
	c5.48-3.16,11.14-3.04,16.63,0.15c30.09,17.46,60.16,34.96,90.28,52.37c5.7,3.3,9.43,7.78,10.2,14.45
	c-0.43,6.35-3.38,11.26-8.54,14.91c-6.72,2.52-12.78,1.42-18.98-2.25c-20.03-11.88-40.26-23.41-60.42-35.07
	c-4.88-2.82-4.9-2.81-4.9,2.64c0,26.79-0.12,53.58,0.1,80.37c0.05,6.64-1.88,12.01-6.76,16.4c-5.79,3.24-11.73,3.35-17.79,0.82
	c-5.57-4.49-7.7-10.15-7.62-17.43c0.31-26.6,0.12-53.21,0.11-79.82c0-5.96-0.03-5.98-5.05-3.08
	c-20.45,11.78-40.96,23.47-61.31,35.44c-5.53,3.25-11.02,4.35-17.13,2.53C278.45,81.1,275.1,75.71,275.26,68.28z"/>
<path d="M711.04,446.99c5.43,4.67,7.31,10.51,7.28,17.7c-0.15,34.12,0.03,68.23,0.19,102.35
	c0.03,6.87-2.97,11.81-8.73,15.13c-29.7,17.11-59.5,34.04-89.1,51.31c-6.21,3.62-12.23,4.88-18.98,2.5
	c-5.44-3.87-8.58-8.97-8.48-15.81c0.69-6.61,4.74-10.7,10.2-13.82c13.71-7.84,27.37-15.75,41.05-23.65
	c8.31-4.8,16.62-9.62,25.51-14.77c-2.19-1.37-3.68-2.36-5.23-3.26c-20.15-11.64-40.28-23.32-60.49-34.87
	c-6.13-3.5-10.62-7.96-11.05-15.44c0.48-5.84,3.2-10.48,7.64-14.18c7.42-3.13,14-1.53,20.8,2.52c19.73,11.77,39.73,23.1,59.64,34.59
	c4.96,2.86,5.01,2.84,5.01-2.77c0-23.49,0.17-46.98-0.16-70.46c-0.11-7.3,2.08-12.97,7.7-17.43
	C699.62,444.19,705.36,444.4,711.04,446.99z"/>
<path d="M492.69,699.25c-0.78,7.4-5.47,11.68-11.55,15.19c-29.39,16.95-58.71,34.03-88.04,51.09
	c-6.02,3.5-11.94,3.41-17.95-0.08c-29.63-17.21-59.25-34.44-88.94-51.55c-5.9-3.4-10.55-7.51-11.49-14.66
	c0.37-6.34,2.94-11.51,8.08-15.33c7.06-2.76,13.39-1.49,19.9,2.39c20.15,12.01,40.56,23.6,60.87,35.35
	c4.71,2.73,4.76,2.72,4.77-2.59c0.02-23.64,0.2-47.28-0.11-70.91c-0.1-7.3,2.14-12.95,7.78-17.38c5.95-2.4,11.79-2.35,17.5,0.78
	c5.01,4.51,6.97,10.02,6.9,16.86c-0.26,23.62,0,47.25-0.18,70.88c-0.04,4.68,1.12,4.47,4.55,2.46
	c19.94-11.7,40.07-23.07,59.93-34.91c6.52-3.89,12.83-5.14,19.87-2.27C489.33,688.32,492.21,693.12,492.69,699.25z"/>
<path d="M600.83,132.2c7.21-3.09,13.66-1.61,20.33,2.29c29.43,17.2,59.04,34.07,88.58,51.09
	c5.79,3.34,8.78,8.3,8.76,15.12c-0.12,34.1-0.3,68.19-0.11,102.29c0.04,7.19-1.82,13.02-7.22,17.71
	c-5.74,2.77-11.53,2.91-17.38,0.36c-5.6-4.49-7.67-10.21-7.58-17.47c0.31-23.47,0.12-46.94,0.1-70.41c0-5.59-0.03-5.59-4.97-2.74
	c-20.75,11.99-41.52,23.94-62.23,35.98c-5.98,3.47-11.98,4.2-18.28,1.09c-4.67-4.02-7.57-8.9-7.5-15.25
	c0.81-6.77,5.04-10.87,10.65-14.09c19.75-11.33,39.45-22.73,59.13-34.17c2.1-1.22,4.54-2.04,6.3-4.45
	c-1.79-1.08-3.46-2.13-5.17-3.12c-20.14-11.64-40.26-23.32-60.45-34.87c-6-3.43-10.18-7.91-10.71-15.11
	C593.58,140.58,596.3,135.9,600.83,132.2z"/>
<path d="M166.64,635.85c-8.52,3.32-15.53,0.02-22.86-4.28c-28.41-16.69-57.08-32.94-85.61-49.42
	c-5.59-3.23-8.6-8.15-8.58-14.75c0.09-34.29,0.29-68.58,0.14-102.88c-0.03-7.2,1.87-13.04,7.41-17.63
	c5.74-2.57,11.49-2.71,17.24-0.01c5.45,4.37,7.61,9.88,7.52,17c-0.31,23.63-0.12,47.27-0.11,70.91c0,5.3,0.03,5.31,4.53,2.7
	c20.02-11.58,40.15-22.99,60.01-34.85c6.63-3.96,13.05-5.55,20.32-2.63c4.6,3.69,7.59,8.31,8.19,14.3
	c-0.61,7.4-4.99,11.95-11.16,15.42c-10.15,5.7-20.16,11.65-30.23,17.49c-11.63,6.74-23.25,13.48-35.49,20.57
	c2.12,1.31,3.63,2.28,5.18,3.18c20.44,11.83,40.86,23.68,61.34,35.44c5.83,3.35,9.86,7.81,10.43,14.79
	C174.45,627.39,171.5,632.16,166.64,635.85z"/>
<path d="M57.07,320.81c-5.33-4.47-7.37-10.08-7.34-17.12c0.15-34.44-0.05-68.87-0.12-103.31
	c-0.01-6.36,2.66-11.28,8.14-14.44c30.69-17.7,61.43-35.3,92.11-53.01c5.57-3.22,11.1-2.77,16.79-0.73
	c4.61,3.66,7.64,8.23,8.21,14.22c-0.54,7.39-4.85,11.99-11.03,15.47c-12.45,7.02-24.79,14.24-37.17,21.4
	c-9.33,5.39-18.65,10.8-28.01,16.21c1.31,2.23,3.33,2.82,5.01,3.79c20.12,11.69,40.25,23.36,60.45,34.93
	c5.97,3.42,10.24,7.87,10.79,15.08c-0.43,6.17-3.5,10.84-8.3,14.52c-6.22,2.79-12.08,1.89-17.85-1.46
	c-20.54-11.94-41.12-23.82-61.72-35.67c-1.49-0.86-2.82-2.37-5.27-1.99c0,1.79,0,3.57,0,5.35c0,23.43-0.15,46.87,0.11,70.3
	c0.08,6.92-2.15,12.26-7.47,16.47C68.64,323.66,62.85,323.49,57.07,320.81z"/>
<path d="M275.21,331.36c-0.1-6.44,2.96-11.28,7.72-15.26c7.24-2.96,13.7-1.48,20.35,2.45
	c22.49,13.3,45.21,26.23,67.85,39.28c1.43,0.82,2.97,1.45,4.45,2.17c8.45,6.23,8.61,6.23,18.12-0.47
	c18.05-10.33,36.1-20.65,54.14-30.99c5.34-3.06,10.91-5.81,15.94-9.33c6.84-4.79,13.87-5.92,21.63-3.03
	c4.4,3.73,7.15,8.37,7.77,14.17c-0.59,7.62-5.29,12.04-11.54,15.64c-23.72,13.66-47.33,27.51-70.99,41.29
	c-2.45,1.34-4.84,2.8-7.36,4c-2.23,1.06-3.23,2.55-3.04,5.07c0.22,2.95,0.16,5.93,0.23,8.9c-0.06,27.41-0.28,54.82-0.08,82.23
	c0.05,7.02-1.95,12.65-7.18,17.2c-5.75,3.06-11.62,2.58-17.55,0.64c-4.94-4.42-7.47-9.63-7.43-16.56
	c0.19-27.8-0.02-55.61-0.08-83.41c0.06-0.98,0.01-1.99,0.21-2.95c1.69-8.17-2.6-12.25-9.77-14.37
	c-13.08-8.55-26.92-15.79-40.37-23.71c-11.03-6.49-22.18-12.77-33.22-19.24C279.75,341.99,275.38,338.15,275.21,331.36z"/>
</svg>
