<?xml version="1.0" encoding="utf-8"?>
<!-- Generator: Adobe Illustrator 24.0.3, SVG Export Plug-In . SVG Version: 6.00 Build 0)  -->
<svg version="1.1" id="Ebene_1" xmlns="http://www.w3.org/2000/svg" xmlns:xlink="http://www.w3.org/1999/xlink" x="0px" y="0px"
	 viewBox="0 0 1920 1920" style="enable-background:new 0 0 1920 1920;" xml:space="preserve">
<style type="text/css">
	.st0{fill:#181716;}
</style>
<g id="_x37_rKVJP.tif_1_">
	<g>
		<path d="M824.9,122.4c0.1,68.2,0.1,137.3,0.1,204.2c0,27.4,0,54.6,0,81.8c0,13.3,5.3,26,14.7,35.4c9.4,9.4,22.1,14.6,35.3,14.6
			c0,0,0,0,0,0l111.9-0.1l58.3,0c26.8,0,48.9-21.2,49.9-48c0-0.4,0-1,0.1-1.6c0.2-3,0.4-7.5,0.4-12.5c0.1-33.1,0.2-66.2,0.2-99.3
			c0.1-57,0.2-116,0.5-173.9c0-0.1,0-0.2,0-0.2c0.1,0,0.2,0.1,0.4,0.1c31.1,11.6,59.7,28.1,84.9,48.9c3.7,3,7.2,5.3,10.2,7
			l31.8,31.8c3.9,5.6,7.8,11,11.5,16.3c9.6,13.4,18.6,26.1,26.2,39c63.6,108.4,51.9,246.8-29.3,344.4c-34.9,42-74.7,72.6-121.6,93.5
			c-14.6,6.5-25.5,16.1-32.6,28.5c-6.3,11.1-9,23.6-8.5,38.3c5.2,137.1,10.5,276.4,15.5,411.2c5.7,151.9,11.6,308.9,17.5,463.4
			c1.5,38.9-0.8,68-16.8,92.8c-2.5,3.9-4.7,7.7-6.6,11.1l-19.4,19.4l-3.5,3.5c-1.2,0.7-2.4,1.4-3.6,2.1c-5.9,3.5-11.5,6.8-16.7,9.6
			c-19.4,10.1-44.7,15.6-71.3,15.6c-22.1,0-44.3-3.7-64.2-10.8c-19.2-6.8-35.5-16.4-47-27.8c-25.4-25.1-36.4-56.9-34.8-100.2
			c7.3-192.9,15-398.5,24.4-647.2c0.6-15.8,1.2-31.6,1.8-47.4c2.4-64.1,4.9-130.5,7.7-195.6c0.2-5.6,1-22.6-8.7-39.4
			c-7.2-12.5-18.1-21.8-33.2-28.5c-74.7-32.8-133.5-90.2-165.8-161.6c-15.7-34.8-24.6-71.6-26.5-109.4c-1.9-38.9,3.9-77.6,17.1-115
			c16.4-46.4,40.9-86.3,72.6-118.5C739.3,166.2,778.6,140.8,824.9,122.4 M830.3,70.9c-7,0-14.5,1.5-22.4,4.5
			c-106.6,41.9-181.4,116.4-219.6,224.3c-63,177.8,24.6,370.5,202.2,448.5c10.2,4.5,12.5,9.5,12.1,19.9
			c-3.5,81.1-6.4,162.2-9.5,243.2c-8.2,215.7-16.3,431.5-24.4,647.2c-2,52.5,11.4,99.7,49.6,137.6c34.7,34.4,91.1,53,146.3,53
			c33.6,0,66.7-6.9,94.4-21.3c9.6-5,18.7-10.8,28.1-16.2c10.7-10.7,21.5-21.5,32.2-32.2c2.8-4.8,5.4-9.8,8.4-14.5
			c24.2-37.4,26.4-78.9,24.7-121.8c-11.2-291.5-21.9-583.1-33-874.6c-0.4-9.9,1.9-15,11.5-19.2c55-24.5,101-60.7,139.6-107.2
			c94.1-113.1,108.5-274.5,34-401.6c-12.6-21.5-28.1-41.4-42.2-62.1c-13.4-13.4-26.9-26.9-40.3-40.3c-2.8-1.6-5.9-2.9-8.4-4.9
			c-29.9-24.7-63.1-43.8-99.3-57.2c-7.1-2.6-15.2-4.2-23-4.2c-3,0-5.9,0.2-8.7,0.7c-24.4,4.1-36,21.3-36.1,50.3
			c-0.3,91.1-0.4,182.2-0.7,273.3c0,5-0.4,10-0.5,12.2c-57.5,0-113.7,0.1-170.2,0.1c0-94.4,0-190.3-0.1-286.1
			C874.9,90.8,856.2,70.9,830.3,70.9L830.3,70.9z"/>
	</g>
</g>
</svg>
