<?xml version="1.0" encoding="utf-8"?>
<!-- Generator: Adobe Illustrator 24.0.3, SVG Export Plug-In . SVG Version: 6.00 Build 0)  -->
<svg version="1.1" id="Ebene_1" xmlns="http://www.w3.org/2000/svg" xmlns:xlink="http://www.w3.org/1999/xlink" x="0px" y="0px"
	 viewBox="0 0 1920 1920" style="enable-background:new 0 0 1920 1920;" xml:space="preserve">
<style type="text/css">
	.st0{fill:#181716;}
</style>
<g>
	<g>
		<path class="st0" d="M958.6,127c115.8,0,226.8,21.4,329.8,63.8c49.6,20.4,97.3,45.6,141.6,75.1c43.9,29.2,85.1,62.8,122.4,100
			c37.3,37.1,71.1,78.2,100.4,122c29.6,44.2,55,91.7,75.5,141.2c42.6,102.8,64.3,213.5,64.6,329c0.2,112.9-21.4,222.2-64.3,324.8
			c-20.6,49.3-46.2,96.9-76.1,141.4c-29.6,44.1-63.6,85.5-101.1,123.2c-37.5,37.7-78.9,71.9-122.9,101.7
			c-44.4,30.1-92.1,56-141.5,77c-102.8,43.6-212.5,66.2-326.2,67c-1.9,0-3.9,0-5.8,0c-56.1,0-112.2-5.7-166.6-16.9
			c-53.1-10.9-105.3-27.2-155.1-48.3c-49-20.8-96.3-46.6-140.5-76.6c-43.8-29.7-85.1-63.9-122.5-101.5
			c-37.5-37.6-71.5-79-101.2-123.1c-29.9-44.5-55.7-92-76.5-141.3c-21.2-50.2-37.5-102.7-48.4-156.2c-11.2-54.9-17-111.4-17.1-167.9
			c-0.2-113.8,21.4-223.7,64.1-326.6c20.6-49.5,46.1-97.1,75.8-141.6c29.5-44.1,63.3-85.5,100.7-123
			c37.4-37.6,78.6-71.7,122.5-101.3c44.3-29.9,91.7-55.6,141-76.4c102.5-43.2,212.1-65.2,325.6-65.4L958.6,127
			C958.6,127,958.6,127,958.6,127 M958.5,77c-0.6,0-1.2,0-1.8,0C465.2,77.9,76.2,468.9,77.1,961.4C77.9,1449,471,1843,955.1,1843
			c2,0,4.1,0,6.1,0c491.7-3.4,882.8-395.9,881.7-885.1C1841.9,459.1,1458.1,77,958.5,77L958.5,77z"/>
	</g>
	<g>
		<path class="st0" d="M1244.4,439.1c11.5,0,15.5,1.5,16.7,2.2c1.1,0.6,4.3,3,9.4,12.2c82,145.9,170.4,299.5,286.9,498
			c2.8,4.7,3.7,7.3,4,8.3c-0.3,1-1.2,3.4-3.8,7.9c-95.7,163.3-193.1,332.3-289.3,502.4c-4.7,8.3-7.2,9.9-7.2,9.9c0,0-2.1,1-9.1,1
			c-0.5,0-1.1,0-1.6,0c-37.3-0.8-77.9-1.2-127.9-1.2c-26.9,0-54.2,0.1-80.6,0.2c-26.3,0.1-53.5,0.2-80.2,0.2
			c-27.2,0-54.8-0.1-81.6-0.2c-26.8-0.1-54.6-0.2-81.9-0.2c-51,0-92.4,0.4-130.4,1.1c-0.5,0-1,0-1.4,0c-5.8,0-8.4-0.8-8.9-1.1
			c-0.1-0.1-2.7-1.8-7.6-10.5c-109.8-194-200.9-352.2-286.7-498c-3.5-5.9-4.6-9.6-4.5-11.1c0.1-1.3,0.9-5.4,6.7-15.3
			C472.6,761.3,565.5,600,649.3,451.7c3.7-6.5,6.6-9.8,8.2-10.6c0.8-0.4,4.1-1.9,14.3-1.9c0.3,0,0.6,0,0.8,0
			c97.1,0.7,193.7,1.1,287.2,1.1c95.7,0,191.1-0.4,283.5-1.1C1243.6,439.1,1244,439.1,1244.4,439.1 M1244.4,389.1c-0.5,0-1,0-1.5,0
			c-94.4,0.8-188.7,1.1-283.1,1.1c-95.6,0-191.2-0.4-286.8-1.1c-0.4,0-0.8,0-1.2,0c-31.5,0-49.9,9.4-65.9,37.9
			c-93.2,165-188.1,329-283.7,492.5c-15.9,27.1-19.4,47.8-2.1,77.1c97,164.8,192.1,330.8,286.3,497.2c14.5,25.7,30.6,36.9,60,36.9
			c0.8,0,1.6,0,2.4,0c43.1-0.9,86.3-1.1,129.4-1.1c54.5,0,109,0.4,163.5,0.4c53.6,0,107.2-0.4,160.8-0.4c42.3,0,84.6,0.2,126.8,1.1
			c0.9,0,1.8,0,2.7,0c29.1,0,45.2-10.4,59.8-36.3c95.1-168,191.4-335.2,289-501.7c14.6-24.9,14.2-42.1-0.2-66.8
			C1503.7,761.2,1407.7,595.7,1314,429C1296.7,398.2,1277.5,389.1,1244.4,389.1L1244.4,389.1z"/>
	</g>
</g>
</svg>
