<svg version="1.1" xmlns="http://www.w3.org/2000/svg" xmlns:xlink="http://www.w3.org/1999/xlink" x="0px" y="0px"
	 viewBox="0 0 139 139" style="enable-background:new 0 0 139 139;" xml:space="preserve">
<path d="M98.02,73.38l-7.72-3.67c6.38-5.85,10-14,10-22.73c0-17.04-13.86-30.9-30.9-30.9s-30.9,13.86-30.9,30.9
	c0,8.77,3.64,16.94,10.07,22.8l-7.56,3.59c-14.78,6-14.95,24.13-14.83,27.63l0.01,2.03l0.61,0.8c0.11,0.14,10.8,13.84,31.43,17.92
	c4.78,1.02,8.54,1.17,10.36,1.17c0.38,0,0.68-0.01,0.92-0.01c0.24,0.01,0.54,0.01,0.92,0.01c0.91,0,2.39-0.04,4.26-0.22
	c8.31-0.78,24.2-4.26,37.21-18.85l0.91-0.97v-1.1l0.04-0.69C112.94,97.5,112.77,79.38,98.02,73.38z M45,46.98
	c0-13.45,10.95-24.4,24.4-24.4s24.4,10.95,24.4,24.4c0,13.45-10.95,24.4-24.4,24.4S45,60.44,45,46.98z M106.84,100.48
	c-11.56,12.54-25.41,15.56-32.73,16.25c-1.64,0.16-2.91,0.19-3.69,0.19c-0.35,0-0.61-0.01-0.81-0.01l-0.1,0l-0.1,0
	c-0.2,0.01-0.47,0.01-0.81,0.01c-1.58,0-4.87-0.13-9.15-1.04c-15.6-3.08-24.88-12.34-27.26-14.98v0c-0.09-2.88,0-17.5,11.16-21.98
	l9.69-4.6l1.35-0.91c4.43,2.53,9.56,3.99,15.02,3.99c5.54,0,10.73-1.5,15.21-4.1l0.26,0.49l10.66,5.06l0.17,0.07
	C106.43,83.22,106.9,96.98,106.84,100.48z"/>
</svg>
