<?xml version="1.0" encoding="utf-8"?>
<!-- Generator: Adobe Illustrator 24.0.3, SVG Export Plug-In . SVG Version: 6.00 Build 0)  -->
<svg version="1.1" id="Ebene_1" xmlns="http://www.w3.org/2000/svg" xmlns:xlink="http://www.w3.org/1999/xlink" x="0px" y="0px"
	 viewBox="0 0 1920 1920" style="enable-background:new 0 0 1920 1920;" xml:space="preserve">
<g>
	<g>
		<path d="M802.8,101.4c5.1,49.9,17.9,98.5,38.9,148c19.9,46.9,47.5,94.8,84.4,146.3c1.3,1.8,2.5,3.4,3.5,4.6c0.4,0.5,0.8,1.1,1,1.3
			c16.4,24,37.7,40.3,65.1,49.9c49.6,17.3,74.6,50.4,76.6,101.2c2.7,72.4,25.2,141.7,70.8,218.2c52.3,87.9,113.5,173.5,186.9,261.7
			c86.1,103.4,145.1,226,180.2,374.9c16.2,68.7,28.1,140.2,35.4,212.4c6.4,64.3,9.3,131.1,8.6,198.8c-5.9-0.8-12-1.7-18.1-2.5
			c5-44.4,4.3-89.8-2-138c-6.1-46.4-17.6-95.8-35.2-151c-18.6-58.5-42.1-117.1-71.8-179c-25-52.2-54.5-107-90.3-167.6
			c-64.1-108.4-137-215.3-216.6-317.8c-34.1-43.8-69.7-87.2-104.2-129.2c-8.9-10.8-18-21.9-27-32.9c-11-13.5-28.1-23-45.6-25.5
			c-33.3-4.7-62-22-80.7-48.9c-18.8-27-25.2-60.1-17.9-93.2c4.1-18.9,0-38.9-11-53.3c-29.8-39.1-48.1-87-57.8-150.8
			c-10.6-69.9-10-143.9,1.7-225.7c2.8-0.3,5.5-0.6,8.2-0.9C791.3,102,797,101.6,802.8,101.4 M822.9,50.8c-0.1,0-0.2,0-0.3,0
			c-13.7,0.1-27.5,0.7-41.2,1.9c-13.2,1.2-26.3,3.4-39.5,5.2c-2.5,2.5-5,5-7.5,7.5c-1.3,4.7-3,9.4-3.7,14.2
			c-13.7,85.5-17.3,171.2-4.2,257c9.5,62.8,28.3,122.2,67.5,173.6c2.3,3,2.8,8.5,1.9,12.4c-21.1,96.8,42.7,188.6,140.6,202.3
			c4.9,0.7,10.7,3.8,13.9,7.6c43.8,53.4,88,106.5,130.4,161c77.5,99.7,148.8,203.8,213.1,312.5c63.3,107,119.7,217.4,157.5,336.3
			c29.9,93.9,47.9,189.3,32.4,288.5c-2.7,17.2,7.2,29.1,24.8,31.8c18.5,2.8,37,5.3,55.5,7.8c4.3,0.6,8.2,0.9,11.7,0.9
			c20.1,0,27.9-10,28.3-34.6c2.8-148.8-10.8-295.9-45.1-440.8c-34.4-145.7-93.6-279-190.5-395.3c-66.9-80.4-128.7-165.1-182.4-255.3
			c-35.7-60-61.1-122.6-63.8-194.5c-2.7-71.8-41.5-122.7-110.1-146.6c-18.2-6.3-30.3-16.2-40.3-30.9c-1.6-2.3-3.4-4.5-5.1-6.8
			C904.4,279.3,857.1,186,851,76.1C850.1,60.3,839,50.8,822.9,50.8L822.9,50.8z"/>
	</g>
	<g>
		<path d="M765.1,718.2c7,7.4,14.5,14.3,22.6,20.7c19.8,15.6,42.5,28.2,69.1,38.1c-50.1,58.6-97.2,120.4-140.3,184.2
			c-49.2,72.7-94.6,149.8-134.9,229.4c-91,179.3-144.1,349.4-162.5,520.1c-3.8,35.4-5.1,70.7-6.3,104.9c-0.2,4.3-0.3,8.7-0.5,13.1
			c-0.3,0-0.6,0-0.9,0c-10.6,0.5-20.8,1-30.9,1.3c-5-25-10-60.1-13-113c-3.6-64.3-1.7-127.3,5.9-187.2
			c7.8-62.2,21.9-123.3,41.8-181.5c22.8-66.5,57.8-132.6,113.6-214.4c5.7-8.4,11.5-16.8,17.3-25.3c57.2-83.7,116.4-170.3,166.4-262
			c18.1-33.2,31.8-68,45.4-103.8C760.8,735.1,763.3,726.8,765.1,718.2 M745.4,618.6c-2.1,0-4.3,0.3-6.6,0.8
			c-14.1,3.5-21.6,15.4-20.1,32.7c2.2,24.9,1.2,49.9-7.6,73.1c-12.6,33.2-25.6,66.5-42.6,97.6c-53.8,98.5-118,190.5-181.1,283
			c-48.5,71.1-91.6,144.6-119.5,226.4c-43.1,125.9-57.8,255.4-50.3,387.7c2.8,50,7.9,99.8,20.4,148.5c3,3,6,6,9,9
			c7.7,1,15.4,2.9,23.1,2.9c0.2,0,0.5,0,0.7,0c19.7-0.3,39.5-1.5,59.2-2.4c22.9-1,30.8-10.1,31.8-33.1c1.8-43,2.5-86.1,7.1-128.8
			c19.2-177.9,76.9-344.1,157.4-502.8c78.8-155.4,175.5-298.8,291-429.4c13.9-15.7,7.9-37.4-12-44.1c-6-2-12.3-3.2-18.3-5.1
			c-51-16.5-92.3-44.8-115.2-95.3C765.6,625.9,756.4,618.6,745.4,618.6L745.4,618.6z"/>
	</g>
	<g>
		<path d="M1160,95.6c7.7,1.7,15.4,3.4,23,5.1c0,0.8,0.1,1.7,0.1,2.5c1.3,23.1,2.7,47.1,3.7,70.4c2.3,54.1,4.1,108.6,5.9,161.3
			c0,0.7,0,1.2,0,1.5c-9.7,29.7-19.7,59.8-30.2,91.1c-7.6-11.6-16.4-22.3-26.5-32c-17-16.4-37.2-30-61.4-41.2
			c32.4-46.8,55.3-93.9,69.8-143.2C1156.3,170.4,1161.4,132.4,1160,95.6 M1133.9,39.7c-17.3,0-29,13.3-26.3,31.9
			c6.2,42.8,0.8,84.4-11.2,125.4c-15.7,53.8-42.3,101.9-75.8,146.6c-16.3,21.7-10.4,39,14.7,48.4c51.3,19.1,89.9,50.6,104.1,106.3
			c2.9,11.2,10.7,18.1,22.3,19.9c1.5,0.2,2.9,0.4,4.3,0.4c11.3,0,21.1-7.4,25.4-20.2c16.7-49.4,33.2-98.9,49.5-148.4
			c1.7-5.2,1.9-11.1,1.7-16.6c-1.8-53.9-3.6-107.8-5.9-161.7c-1.5-34.4-3.7-68.8-5.6-103.2c-3.5-3.5-7-7-10.5-10.5
			c-26.5-5.8-52.8-12-79.4-17.4C1138.8,40,1136.3,39.7,1133.9,39.7L1133.9,39.7z"/>
	</g>
	<g>
		<path d="M947.9,547.7c3.4,0,10,0.9,15.8,6.7c7.9,8,8.2,22.2,0.7,29.8c-4.5,4.6-10.4,7.1-16.4,7.1c-4,0-10-1.1-15.3-6.4
			c-8.3-8.2-8.4-22.2-0.2-30.6C938.1,548.6,944.6,547.7,947.9,547.7C947.9,547.7,947.9,547.7,947.9,547.7 M947.9,497.7
			c-18.5,0-37.1,7.2-51.2,21.6c-27.4,27.9-27.1,73.4,0.6,101c14.1,14,32.3,21,50.6,21c18.7,0,37.4-7.3,51.9-21.9
			c26.9-27.1,26.6-72.7-0.6-100.2C985,504.9,966.5,497.7,947.9,497.7L947.9,497.7z"/>
	</g>
</g>
</svg>
