<svg version="1.1" xmlns="http://www.w3.org/2000/svg" xmlns:xlink="http://www.w3.org/1999/xlink" x="0px" y="0px"
	 viewBox="0 0 1920 1920" xml:space="preserve">
	<path d="M1075.1,1902.9H877.2c-22.1,0-40-17.9-40-40V866.1c0-14.3,7.5-26.8,18.8-33.9V502.9c0-46.6-8.6-81.5-26.2-106.7
		c-11-15.8-25.4-27.6-44.1-36.2c-23.3-10.7-53.2-16.2-88.9-16.2H576.6v36.4c0,22.1-17.9,40-40,40H393.8c-22.1,0-40-17.9-40-40V57.1
		c0-22.1,17.9-40,40-40h140.3c22.1,0,40,17.9,40,40v32.6h365.7c59,0,121.7,13.7,186.3,40.7c50.5,21.1,102.3,50.3,154.2,86.9
		c87.6,61.8,144.8,123.1,147.1,125.7c14.6,15.8,14.2,40.3-1,55.5l-40.1,40.1c-12.9,12.9-33,15.4-48.7,6.1l0,0
		c-0.5-0.3-52.3-31-114.9-61.2c-62.3-30.1-104.6-45-132.7-52.2V829c14.7,5.9,25,20.3,25,37.1v996.8
		C1115.1,1885,1097.2,1902.9,1075.1,1902.9z M917.2,1822.9h117.9V903.2c-14.7-5.9-25-20.3-25-37.1V285c0-22.1,17.9-40,40-40
		c47.2,0,115.3,21.8,208.1,66.6c13.8,6.6,27,13.3,39.2,19.6c-18.6-15.6-40.4-32.6-64.4-49.5c-46.9-33-93.4-59.2-138.3-77.8
		c-54.5-22.7-106.6-34.1-154.7-34.1H534.1c-22.1,0-40-17.9-40-40V97.1h-60.3v243.1h62.8v-36.4c0-22.1,17.9-40,40-40h160.3
		c47.3,0,88.5,7.9,122.3,23.5c31.5,14.5,57.2,35.8,76.3,63.1c27.3,39.1,40.5,89,40.5,152.5v363.2c0,14.3-7.5,26.8-18.8,33.9V1822.9z
		"/>
</svg>
