<? xml version = "1.0" encoding = "utf-8" ?>
<!-- Generator: Adobe Illustrator 24.0.3, SVG Export Plug-In . SVG Version: 6.00 Build 0)  --> <svg version="1.1" id="Ebene_1" xmlns="http://www.w3.org/2000/svg" xmlns:xlink="http://www.w3.org/1999/xlink" x="0px" y="0px" viewBox="0 0 1920 1920" style="enable-background:new 0 0 1920 1920;" xml:space="preserve">
  <g>
    <g>
      <path d="M524.1,67.1v22.6c0,27.6,22.4,50,50,50h365.7c52.4,0,108.6,12.4,167.1,36.8c47.1,19.7,95.8,47.1,144.6,81.6
      			c67.5,47.7,115.7,94.6,132.6,111.9l-27.7,27.7c-16.3-9.5-60.3-34.4-112-59.4c-56.4-27.2-104.2-45.9-142.1-55.6
      			c-4.1-1-8.2-1.6-12.3-1.6c-11,0-21.8,3.6-30.7,10.5c-12.2,9.5-19.3,24-19.3,39.5V829c0,18.1,9.7,34.5,25,43.3v980.6H887.2V871.2
      			c11.8-9.4,18.8-23.8,18.8-39.1V502.9c0-57.1-11.5-101.4-35.1-135.3c-16-22.9-37.6-40.8-64.2-53c-29.9-13.8-66.9-20.8-109.8-20.8
      			H576.6c-27.6,0-50,22.4-50,50v26.4H403.8V67.1H524.1 M534.1,17.1H393.8c-22.1,0-40,17.9-40,40v323.1c0,22.1,17.9,40,40,40h142.8
      			c22.1,0,40-17.9,40-40v-36.4h120.3c35.7,0,65.6,5.4,88.9,16.2c18.7,8.6,33.1,20.4,44.1,36.2c17.6,25.3,26.2,60.2,26.2,106.7v329.2
      			c-11.3,7.1-18.8,19.6-18.8,33.9v996.8c0,22.1,17.9,40,40,40h197.9c22.1,0,40-17.9,40-40V866.1c0-16.8-10.4-31.2-25-37.1V331.2
      			c28.2,7.2,70.4,22.1,132.7,52.2c62.6,30.2,114.4,60.9,114.9,61.2c6.4,3.8,13.4,5.6,20.4,5.6c10.3,0,20.6-4,28.3-11.7l40.1-40.1
      			c15.2-15.2,15.7-39.7,1-55.5c-2.4-2.6-59.6-63.9-147.1-125.7c-51.8-36.6-103.7-65.8-154.2-86.9c-64.6-27-127.3-40.7-186.3-40.7
      			H574.1V57.1C574.1,35,556.2,17.1,534.1,17.1L534.1,17.1z"/>
    </g>
  </g>
</svg>
