<svg xmlns="http://www.w3.org/2000/svg" width="24" height="24" viewBox="0 0 6.35 6.35"><path fill="#16172a" fill-rule="evenodd" d="M1.4552083 1.5874999c-.2384449 0-.4463339.1286076-.56275634.3188436.0941897-.032629.19344674-.05426.29817304-.05426h3.9687498c.1047263 0 .2039834.021631.298173.05426C5.3411253 1.7161075 5.1332363 1.5874999 4.8947915 1.5874999zM1.190625 2.1166666c-.36415969 0-.66145835.2972986-.66145835.6614583v1.8520832c0 .3641597.29729866.6614583.66145835.6614583H2.5135415A.13230489.13230489 0 0 0 2.6458333 5.1593748C2.6458277 5.0086565 2.7037569 4.8332975 2.8008627 4.7051389 2.897968 4.5769803 3.0241687 4.4979109 3.175 4.4979165c.1508312-.0000056.2770319.079064.3741372.2072224.097106.1281586.1550349.3035176.1550294.4542359a.13230489.13230489 0 0 0 .1322917.1322916h1.3229165c.3641595 0 .6614583-.2972987.6614583-.6614583V2.7781249c0-.3641597-.2972988-.6614583-.6614583-.6614583zm.6609415.6604248c.4368227 0 .7947834.3584777.7947834.7953002 0 .4368225-.3579608.7927165-.7947834.7927165-.4368226 0-.7927164-.355894-.7927164-.7927165-2e-7-.4368225.3558938-.7953002.7927164-.7953002zm2.64635 0c.4368225 0 .7932332.3584777.7932332.7953002 0 .4368225-.3564107.7927165-.7932332.7927165-.4368226 0-.7927164-.355894-.7927164-.7927165 0-.4368225.3558938-.7953002.7927164-.7953002z"/>
<path fill="#16172a" fill-rule="evenodd" d="m 3.175,4.7624998 c -0.058359,-2.1e-6 -0.1011966,0.02036 -0.1632977,0.1023194 -0.032243,0.042554 -0.057653,0.1024923 -0.075964,0.1627807 H 3.4142619 C 3.3959506,4.9673115 3.3705408,4.9073729 3.3382976,4.8648192 3.2761965,4.782859 3.233358,4.7624977 3.175,4.7624998 Z" color="#000"/></svg>