<svg version="1.1" xmlns="http://www.w3.org/2000/svg" xmlns:xlink="http://www.w3.org/1999/xlink" x="0px" y="0px"
	 viewBox="0 0 1920 1920" style="enable-background:new 0 0 1920 1920;" xml:space="preserve">
	<path d="M741.9,57.9c13.2-1.8,26.3-4.1,39.5-5.2c13.7-1.2,27.5-1.8,41.2-1.9c16.3-0.1,27.5,9.3,28.4,25.2
		c6,109.9,53.4,203.2,115.8,290.6c1.6,2.3,3.5,4.4,5.1,6.8c10,14.8,22.1,24.6,40.3,30.9c68.6,23.9,107.3,74.7,110.1,146.6
		c2.7,71.9,28.1,134.5,63.8,194.5c53.7,90.2,115.4,174.9,182.4,255.3c96.9,116.3,156,249.6,190.5,395.3
		c34.3,145,47.9,292.1,45.1,440.8c-0.5,28.9-11.1,37.6-40,33.7c-18.5-2.5-37-5.1-55.5-7.8c-17.5-2.6-27.5-14.6-24.8-31.8
		c15.5-99.2-2.4-194.6-32.4-288.5c-37.9-118.9-94.3-229.3-157.5-336.3c-64.3-108.7-135.5-212.8-213.1-312.5
		c-42.4-54.5-86.7-107.6-130.4-161c-3.1-3.8-8.9-6.9-13.9-7.6c-97.9-13.7-161.7-105.5-140.6-202.3c0.8-3.9,0.3-9.4-1.9-12.4
		c-39.2-51.4-57.9-110.8-67.5-173.6c-13-85.9-9.4-171.6,4.2-257c0.8-4.8,2.5-9.5,3.7-14.2C736.9,62.9,739.4,60.4,741.9,57.9z
		 M799.6,106.4c-17-1.8-18.1-1.5-19.2,7.5c-9.2,74.9-11.4,149.8,1.2,224.5c9.4,55.7,27,108.1,66.4,150.7c8.6,9.3,8.8,19.9,4.9,31.5
		c-25.2,75.2,23.7,147.1,102.6,151c10.6,0.5,18.8,4.5,25.6,12.6c30.7,37.2,62.1,73.9,92.4,111.5
		c101.1,125.6,193.9,257.2,275.3,396.5c64.5,110.4,121.1,224.6,158.5,347.4c25.1,82.5,40.5,166.4,34.9,253.2
		c-0.4,6.3-0.9,12.6-1.4,19c1.9,0.6,3.2,1.1,4.5,1.3c1.3,0.2,2.7-0.1,4.5-0.2c0.2-3.1,0.5-5.8,0.5-8.6
		c-0.7-133-13.6-264.7-44.2-394.4c-20.2-85.7-48.7-168.5-90.4-246.5c-30.7-57.3-73.7-105.6-111.7-157.6
		c-48.9-66.8-98.3-133.3-144.5-202c-51.7-76.8-89.9-158.7-91.7-254.9c-1-53.2-39.9-89.7-92.1-100c-7.9-1.6-16.8-6.5-21.9-12.6
		c-16.7-20-32.8-40.6-47.4-62.1c-51.8-76.4-90.5-158.4-104.2-250.7C801.2,117.9,800.4,112.1,799.6,106.4z"/>
	<path d="M337.9,1868.4c-12.5-48.7-17.6-98.5-20.4-148.5c-7.5-132.3,7.2-261.9,50.3-387.7c28-81.8,71.1-155.3,119.5-226.4
		c63.1-92.5,127.4-184.5,181.1-283c17-31,30-64.4,42.6-97.6c8.8-23.2,9.8-48.2,7.6-73.1c-1.5-17.3,6-29.2,20.1-32.7
		c14-3.4,25.7,3.9,32.9,19.8c22.9,50.5,64.2,78.8,115.2,95.3c6,2,12.3,3.1,18.3,5.1c19.9,6.7,25.8,28.4,12,44.1
		c-115.5,130.6-212.2,274.1-291,429.4C545.7,1371.9,488,1538.1,468.8,1716c-4.6,42.7-5.3,85.8-7.1,128.8c-1,23-8.9,32.1-31.8,33.1
		c-19.7,0.9-39.4,2.1-59.2,2.4c-7.9,0.1-15.9-1.8-23.8-2.9C343.9,1874.4,340.9,1871.4,337.9,1868.4z M766.5,729.5
		c0.2-0.3-0.6,0.8-0.9,2.1c-11.1,43-30.3,82.6-51.9,121.1c-58.5,103.9-126.5,201.6-193.2,300.3c-42.7,63.1-78.6,129.4-102.7,201.8
		c-44,131.9-55.1,267.3-42.5,405.1c2,22,5.3,43.9,8.1,66.3c8.9-0.5,16.2-0.9,24.2-1.3c0.3-10.3,0.6-19.7,1-29.1
		c7.2-187.7,56.7-364.9,133.7-535.1c73-161.4,166.7-310,278.7-447.2c9.2-11.3,18.4-22.6,26.4-32.5
		C819.8,763.4,793.3,746.5,766.5,729.5z"/>
	<path d="M1231.2,68.4c1.9,34.4,4.1,68.8,5.6,103.2c2.3,53.9,4.1,107.8,5.9,161.7c0.2,5.5,0,11.5-1.7,16.6
		c-16.3,49.6-32.8,99-49.5,148.4c-4.9,14.4-16.6,22-29.7,19.9c-11.6-1.9-19.4-8.7-22.3-20c-14.2-55.6-52.8-87.2-104.1-106.3
		c-25.1-9.3-31-26.7-14.7-48.4c33.5-44.7,60-92.9,75.8-146.6c12-41,17.4-82.6,11.2-125.4c-3.1-21.1,12.5-35.5,33.7-31.1
		c26.5,5.4,52.9,11.6,79.4,17.4C1224.2,61.4,1227.7,64.9,1231.2,68.4z M1161.2,417.2c1.5-3.5,2.8-5.9,3.6-8.5
		c7-21.1,14.3-42,20.8-63.3c2.1-6.9,3.3-14.5,3-21.7c-2.3-69-5-138.1-7.6-207.1c-0.5-14.3-0.5-14.3-16.7-14.7
		c-0.4,92.2-32.5,174-82.9,249.3c14.7,9.9,29.4,18.3,42.3,29C1136.9,391.1,1148.3,404.2,1161.2,417.2z"/>
	<path d="M897.4,620.3c-27.7-27.6-28-73.1-0.6-101c28.2-28.7,74-28.8,102.5,0c27.3,27.5,27.5,73.1,0.6,100.2
		C971.3,648.2,925.9,648.6,897.4,620.3z M960.3,582.1c7.1-6.9,7.4-17.5,0.9-24.6c-6.8-7.4-18.3-7.7-25.5-0.7
		c-6.8,6.6-7.2,17.8-0.8,24.8C941.7,588.9,953.1,589.2,960.3,582.1z"/>
</svg>
